<svg width="152" height="32" viewBox="0 0 152 32" fill="none" xmlns="http://www.w3.org/2000/svg">
<g clip-path="url(#clip0_3_1811)">
<path fill-rule="evenodd" clip-rule="evenodd" d="M82.1616 18.3859C81.8528 17.5999 81.6844 16.7859 81.6844 15.9157C81.6844 15.0736 81.8248 14.2596 82.1335 13.4736C82.4704 12.6876 82.9756 11.9859 83.6493 11.3964C84.3511 10.7789 85.2213 10.3017 86.316 9.93676C87.4107 9.57185 88.702 9.40343 90.2458 9.40343C91.2002 9.40343 92.0984 9.48764 92.9125 9.65606C93.7265 9.82448 94.4283 10.021 95.0458 10.2175C95.7756 10.4701 96.3932 10.7227 96.9827 11.0315L99.2002 7.77536C98.6388 7.32623 97.937 6.93325 97.0669 6.56834C96.702 6.39992 96.309 6.25957 95.8318 6.11922C95.3546 5.97887 94.8493 5.83851 94.2879 5.72623C93.7265 5.61395 93.109 5.50167 92.4353 5.44553C91.7616 5.36132 91.0318 5.33325 90.2458 5.33325C87.9721 5.33325 86.0072 5.61395 84.323 6.17536C82.6669 6.73676 81.2634 7.52273 80.1686 8.47711C79.0739 9.4315 78.2318 10.5543 77.6984 11.8455C77.1651 13.1368 76.8844 14.4841 76.8844 15.9157C76.8844 17.3473 77.1651 18.6947 77.6984 19.9859C78.2318 21.2771 79.0739 22.3999 80.1686 23.3543C81.2634 24.3368 82.6388 25.0947 84.323 25.6561C86.0072 26.2175 87.9721 26.4982 90.2458 26.4982C91.0318 26.4982 91.8739 26.4701 92.716 26.414C93.5862 26.3297 94.4283 26.2175 95.2423 26.049C96.0563 25.8806 96.8423 25.628 97.5721 25.3192C98.33 25.0104 98.9476 24.6175 99.509 24.1122V14.1192H89.909V18.021H95.1862V21.6982C94.737 21.9227 94.0914 22.1192 93.2213 22.2596C92.3791 22.3999 91.3686 22.4561 90.2739 22.4561C88.73 22.4561 87.4388 22.2876 86.3441 21.9227C85.2493 21.5578 84.3511 21.0526 83.6774 20.4631C82.9756 19.8736 82.4704 19.1718 82.1616 18.3859ZM63.4669 21.8947V25.9368H43.2002V23.4666L55.9441 9.93676H43.6493V5.89466H63.4669V8.36483L50.723 21.8947H63.4669ZM67.9862 5.89466H72.6459V25.9368H67.9862V5.89466ZM120.758 5.89466H125.418V25.9368H120.758V17.7403H108.66V25.9368H104V5.89466H108.66V13.6982H120.758V5.89466ZM151.242 9.93676V5.89466H129.348V9.93676H137.965V25.9368H142.625V9.93676H151.242Z" fill="black"/>
<path fill-rule="evenodd" clip-rule="evenodd" d="M31.6631 10.3018L23.7473 14.8772L13.7263 9.09474L12.5754 8.42105L6.00699 4.63158C7.80348 2.80701 10.0491 1.43158 12.5754 0.673681C12.9403 0.561401 13.3333 0.449123 13.7263 0.364912C14.793 0.112282 15.9158 0 17.0386 0C23.7754 0 29.5017 4.29474 31.6631 10.3018ZM1.51579 15.5509C1.51579 18.0491 2.10526 20.407 3.14386 22.4842L0 31.8035L7.77544 28.014C9.20702 29.0807 10.807 29.8947 12.5754 30.4281V22.7088V21.3614V9.74035L5.19298 5.47368C2.89123 8.19649 1.51579 11.7053 1.51579 15.5509ZM32.0281 11.4526L24.9544 15.5508L23.8035 16.2245L13.7544 22.035V30.7368C14.8211 30.9613 15.9158 31.1017 17.0667 31.1017C23.8035 31.1017 29.5579 26.807 31.6912 20.7999C31.8051 20.5039 31.9005 20.1895 31.9923 19.8865C32.0137 19.8159 32.0349 19.746 32.0561 19.6771C32.4211 18.3578 32.6175 17.0105 32.6175 15.5789C32.5614 14.1473 32.3649 12.7719 32.0281 11.4526Z" fill="#007AFF"/>
</g>
<defs>
<clipPath id="clip0_3_1811">
<rect width="151.298" height="32" fill="white"/>
</clipPath>
</defs>
</svg>
