<?xml version="1.0" encoding="utf-8"?>
<!-- Generator: Adobe Illustrator 23.0.1, SVG Export Plug-In . SVG Version: 6.00 Build 0)  -->
<!DOCTYPE svg PUBLIC "-//W3C//DTD SVG 1.1//EN" "http://www.w3.org/Graphics/SVG/1.1/DTD/svg11.dtd" [
	<!ENTITY ns_extend "http://ns.adobe.com/Extensibility/1.0/">
	<!ENTITY ns_ai "http://ns.adobe.com/AdobeIllustrator/10.0/">
	<!ENTITY ns_graphs "http://ns.adobe.com/Graphs/1.0/">
	<!ENTITY ns_vars "http://ns.adobe.com/Variables/1.0/">
	<!ENTITY ns_imrep "http://ns.adobe.com/ImageReplacement/1.0/">
	<!ENTITY ns_sfw "http://ns.adobe.com/SaveForWeb/1.0/">
	<!ENTITY ns_custom "http://ns.adobe.com/GenericCustomNamespace/1.0/">
	<!ENTITY ns_adobe_xpath "http://ns.adobe.com/XPath/1.0/">
]>
<svg version="1.1" id="Livello_2_1_" xmlns:x="&ns_extend;" xmlns:i="&ns_ai;" xmlns:graph="&ns_graphs;"
	 xmlns="http://www.w3.org/2000/svg" xmlns:xlink="http://www.w3.org/1999/xlink" x="0px" y="0px" viewBox="0 0 627.9 200"
	 style="enable-background:new 0 0 627.9 200;" xml:space="preserve">
<style type="text/css">
	.st0{fill:#E61B23;}
	.st1{fill:#FFFFFF;}
</style>
<metadata>
	<sfw  xmlns="&ns_sfw;">
		<slices></slices>
		<sliceSourceBounds  bottomLeftOrigin="true" height="200" width="627.9" x="0" y="0"></sliceSourceBounds>
	</sfw>
</metadata>
<g>
	<polygon class="st0" points="0,0 0,200 200,200 200,0 	"/>
	<path class="st1" d="M167.2,55.1c-5.8,0-10.6,4.8-10.6,10.6c0,5.8,4.8,10.6,10.6,10.6c5.8,0,10.6-4.8,10.6-10.6
		C177.8,59.8,173,55.1,167.2,55.1"/>
	<rect x="157.8" y="86.1" class="st1" width="18.9" height="53.3"/>
	<path class="st1" d="M63.4,107.3c11.1-2,17.1-11.3,17.1-22.1c0-16.7-11.7-24.1-27.2-24.1H22.9v78.3h20.4v-30.1h0.2l19.2,30.1H88
		L63.4,107.3z M45.3,96.2h-2V76.7h2c6.6,0,14.1,1.2,14.1,9.8C59.4,94.9,51.9,96.2,45.3,96.2"/>
	<path class="st1" d="M128,86.1v5.2c-4-4.7-10.4-7-16.5-7c-15.8,0-26.7,13.1-26.7,28.4c0,15.3,11.1,28.5,26.9,28.5
		c6.2,0,12.8-2.4,16.1-7.7h0.2v5.9h18.9V86.1H128z M116.4,124.8c-7.7,0-12.2-5.2-12.2-11.9c0-6.5,4.5-12.1,12.2-12.1
		c7.7,0,12.1,5.5,12.1,12.1C128.6,119.6,124.1,124.8,116.4,124.8"/>
	<path class="st0" d="M258.8,123.8v16.4h-31.9v-16.4h7.7V77.2h-7.7V60.9h31.9c9.2,0,16.4,0.1,22.4,4.4c6.8,4.7,10.9,12.9,10.9,22
		c0,10.9-5.6,20.1-14.8,24.6l9.8,12h7.5v16.4h-17.2l-23.3-28.4v12H258.8z M257.9,97.5c9.7,0,14.4-2.7,14.4-9.5
		c0-7.1-4.1-9.3-13.5-9.3h-4.7v18.7H257.9z"/>
	<path class="st0" d="M326.7,141.1c-17.2,0-30-13.2-30-31.6c0-18.4,12.8-31.6,30-31.6c8.3,0,14.2,2.6,18.7,8.6V79h23.4V95h-6.7v29
		h6.7v16.2h-24.3v-6.8C340.4,138.7,334.6,141.1,326.7,141.1 M329.9,124.8c8.5,0,14.7-6.4,14.7-15.3c0-8.9-6.3-15.3-14.7-15.3
		c-8.5,0-14.7,6.4-14.7,15.3C315.2,118.5,321.4,124.8,329.9,124.8"/>
	<path class="st0" d="M401.1,141.1c-17.2,0-30-13.2-30-31.6c0-18.4,12.8-31.6,30-31.6c8.3,0,14.2,2.6,18.7,8.6V76.4h-6.7V60.9h23.4
		V124h6.7v16.2h-24.3v-6.8C414.8,138.7,409,141.1,401.1,141.1 M404.3,124.8c8.5,0,14.7-6.4,14.7-15.3c0-8.9-6.3-15.3-14.7-15.3
		c-8.5,0-14.7,6.4-14.7,15.3C389.6,118.5,395.8,124.8,404.3,124.8"/>
	<path class="st0" d="M455.7,95h-7.5V79H473V124h7.7v16.2H448V124h7.7V95z M455.7,60.9H473v14.7h-17.3V60.9z"/>
	<path class="st0" d="M491.4,86.7c6.1-6,14.4-9.4,23.3-9.4c8.9,0,17.1,3.4,23.2,9.4c6.1,6,9.4,13.8,9.4,22.9
		c0,8.9-3.2,16.9-9.4,22.9c-6.1,6-14.3,9.3-23.2,9.3c-8.9,0-17.2-3.2-23.3-9.3c-6.1-6-9.4-13.9-9.4-22.9
		C482,100.6,485.2,92.7,491.4,86.7 M514.7,124.7c7.8,0,14.2-6.7,14.2-15.2c0-8.6-6.3-15.2-14.2-15.2c-7.8,0-14.3,6.6-14.3,15.2
		C500.4,118,506.9,124.7,514.7,124.7"/>
	<path class="st0" d="M572.9,140.2v-17.3c23.3-13.8,34.9-27,34.9-38.2c0-5.6-3-8.8-7.8-8.8c-4.9,0-8.1,4.1-8.1,11.4
		c0,0.6,0.1,1.2,0.1,1.8h-19.5v-0.6c0-17.6,11.5-29.2,28.2-29.2c16.7,0,27.2,9.6,27.2,24c0,11.7-9.8,25.6-29.5,40.7h13.2v-5h16.2
		v21.2H572.9z"/>
</g>
</svg>
