<?xml version="1.0" encoding="iso-8859-1"?>
<!-- Uploaded to: SVG Repo, www.svgrepo.com, Generator: SVG Repo Mixer Tools -->
<svg height="800px" width="800px" version="1.1" id="Layer_1" xmlns="http://www.w3.org/2000/svg" xmlns:xlink="http://www.w3.org/1999/xlink" 
	 viewBox="0 0 512 512" xml:space="preserve">
<path style="fill:#F9D026;" d="M311.464,512c-68.38,0-132.667-26.628-181.02-74.98C82.094,388.667,55.464,324.38,55.464,256
	s26.628-132.667,74.98-181.02C178.797,26.628,243.084,0,311.464,0c40.727,0,79.674,9.291,115.755,27.612l29.316,14.887
	l-29.316,14.886c-36.116,18.34-66.594,46.205-88.14,80.584c-22.133,35.317-33.832,76.131-33.832,118.03s11.699,82.714,33.832,118.03
	c21.545,34.38,52.024,62.246,88.14,80.584l29.316,14.886l-29.316,14.887C391.138,502.709,352.193,512,311.464,512z"/>
<path style="fill:#E7C224;" d="M427.219,57.385l29.27-14.862c-21.36-6.775-44.105-10.441-67.71-10.441
	c-123.558,0-223.722,100.164-223.722,223.722s100.164,223.722,223.722,223.722c23.428,0,46.012-3.608,67.234-10.288l-28.796-14.621
	c-36.116-18.339-66.594-46.205-88.14-80.584c-22.133-35.317-33.832-76.131-33.832-118.03s11.699-82.714,33.832-118.03
	C360.625,103.59,391.103,75.724,427.219,57.385z"/>
<circle style="fill:#FFAC12;" cx="145.742" cy="166.957" r="25.778"/>
<path style="fill:#D89210;" d="M306.857,229.203c3.899-32.377,14.842-63.501,32.223-91.235c7.608-12.139,16.35-23.445,26.039-33.828
	c-13.352-13.542-31.904-21.945-52.425-21.945c-40.664,0-73.629,32.965-73.629,73.629
	C239.064,194.524,268.924,226.226,306.857,229.203z"/>
<g>
	<path style="fill:#FFAC12;" d="M361.499,477.865c-6.551-16.028-22.29-27.325-40.675-27.325c-9.662,0-18.59,3.127-25.843,8.413
		c-10.961,7.988-18.09,20.919-18.09,35.519c0,5.494,1.017,10.746,2.858,15.594c10.441,1.282,21.029,1.932,31.715,1.932
		c17.53,0,34.729-1.732,51.513-5.155c1.151-3.926,1.779-8.075,1.779-12.373C364.757,488.595,363.593,482.99,361.499,477.865z"/>
	<path style="fill:#FFAC12;" d="M182.716,292.98c-4.939,0-9.709,0.702-14.236,1.987c-21.831,6.195-37.828,26.261-37.828,50.077
		c0,28.754,23.309,52.064,52.064,52.064c9.805,0,18.974-2.715,26.805-7.427c15.133-9.107,25.258-25.688,25.258-44.636
		C234.78,316.289,211.469,292.98,182.716,292.98z"/>
</g>
<g>
	<path style="fill:#D89210;" d="M234.78,345.043c0-28.754-23.309-52.064-52.064-52.064c-4.939,0-9.709,0.702-14.236,1.987
		c6.192,35.068,20.548,67.318,41.04,94.713C224.654,380.573,234.78,363.992,234.78,345.043z"/>
	<path style="fill:#D89210;" d="M320.824,450.54c-9.662,0-18.59,3.127-25.843,8.413c20.663,9.557,43.027,16.056,66.518,18.912
		C354.947,461.837,339.208,450.54,320.824,450.54z"/>
</g>
</svg>